#!OML:ASF C:\ViconDB\ViconDB\414\Spring2016\041811\Spring2016.ASF
:FULLY-SPECIFIED
:DEGREES
262
root 9.62687 18.0741 -25.9131 -183.111 0.540761 -178.975
lowerback 4.35416 1.17732 0.590239
upperback 2.47572 1.71857 0.974274
thorax 0.0874176 0.912344 0.595672
lowerneck -9.22021 -4.23656 -11.6285
upperneck 17.638 -8.07455 15.8183
head 8.03856 -3.72513 6.41724
rclavicle -1.38528e-014 -4.37326e-015
rhumerus -36.4664 -9.32936 -84.2628
rradius 36.7176
rwrist 36.9329
rhand -30.4554 -12.5656
rfingers 7.12502
rthumb -3.75726 -42.5122
lclavicle -1.38528e-014 -4.37326e-015
lhumerus -38.7467 7.87933 83.8608
lradius 22.1049
lwrist -35.2864
lhand -30.0015 18.9633
lfingers 7.12502
lthumb -3.31889 48.9172
rfemur -6.12308 -12.6325 23.5807
rtibia 30.2331
rfoot -165.2 11.463
rtoes -16.2479
lfemur -22.8493 11.9498 -10.5539
ltibia 69.4885
lfoot -5.20069 5.55126
ltoes -6.23889
263
root 9.63313 18.0707 -26.103 -183.072 0.830672 -179.313
lowerback 4.24677 1.34398 0.295069
upperback 2.55865 1.92844 0.866507
thorax 0.225281 1.01523 0.646159
lowerneck -9.37533 -4.28626 -11.7581
upperneck 17.6201 -8.04727 15.7052
head 8.0586 -3.71043 6.40155
rclavicle -1.74185e-014 -1.59028e-015
rhumerus -35.442 -8.73983 -84.4423
rradius 36.5695
rwrist 36.6277
rhand -30.4487 -12.4499
rfingers 7.12502
rthumb -3.75073 -42.3967
lclavicle -1.74185e-014 -1.59028e-015
lhumerus -39.112 8.87663 83.2796
lradius 21.8588
lwrist -35.505
lhand -29.6259 18.7149
lfingers 7.12502
lthumb -2.95617 48.6741
rfemur -5.19333 -12.8193 23.0728
rtibia 29.7758
rfoot -165.004 11.9405
rtoes -16.1323
lfemur -23.9092 11.966 -11.3671
ltibia 68.1399
lfoot -6.4621 5.94763
ltoes -6.21156
264
root 9.6392 18.0667 -26.2933 -183.029 1.02781 -179.287
lowerback 4.18171 1.49771 0.349917
upperback 2.62134 2.1374 0.861987
thorax 0.326129 1.12169 0.605852
lowerneck -9.60275 -4.35749 -11.6091
upperneck 17.6415 -8.00307 15.2306
head 8.07658 -3.68752 6.21036
rclavicle 1.06971e-014 4.96962e-015
rhumerus -34.5144 -8.41888 -84.4716
rradius 36.7068
rwrist 36.8501
rhand -29.9715 -12.1524
rfingers 7.12502
rthumb -3.2899 -42.1067
lclavicle 1.06971e-014 4.96962e-015
lhumerus -39.6135 9.07103 83.0163
lradius 21.584
lwrist -36.5068
lhand -29.6991 18.7159
lfingers 7.12502
lthumb -3.02684 48.6741
rfemur -4.22622 -12.8776 22.9942
rtibia 29.2073
rfoot -165.436 12.2844
rtoes -16.5585
lfemur -24.9091 11.8379 -11.7112
ltibia 66.5695
lfoot -7.26456 6.02595
ltoes -7.89353
265
root 9.64689 18.0714 -26.488 -182.98 1.27443 -179.112
lowerback 4.06164 1.62932 0.673901
upperback 2.67414 2.32326 0.777691
thorax 0.461916 1.21978 0.336844
lowerneck -9.69634 -4.37957 -11.4704
upperneck 17.665 -7.97527 14.9721
head 8.08171 -3.67305 6.09746
rclavicle 5.25537e-015 -5.96354e-015
rhumerus -33.622 -8.19796 -84.7137
rradius 36.7806
rwrist 36.9019
rhand -29.844 -12.2117
rfingers 7.12502
rthumb -3.16681 -42.1679
lclavicle 5.25537e-015 -5.96354e-015
lhumerus -40.0626 9.4494 82.4685
lradius 21.3446
lwrist -37.1298
lhand -29.615 18.8046
lfingers 7.12502
lthumb -2.94566 48.764
rfemur -3.23759 -12.7981 23.045
rtibia 28.6016
rfoot -165.552 12.4978
rtoes -16.589
lfemur -25.7571 11.7455 -11.8901
ltibia 64.73
lfoot -8.85259 6.62296
ltoes -6.79283
266
root 9.6502 18.0691 -26.6848 -183.019 1.27413 -179.206
lowerback 3.91148 1.69881 0.763971
upperback 2.84762 2.42376 0.623821
thorax 0.734004 1.27672 0.135105
lowerneck -9.92343 -4.47465 -11.3987
upperneck 17.5634 -8.01651 14.8168
head 8.08868 -3.67777 6.02034
rclavicle 3.7533e-014 -8.94531e-015
rhumerus -32.6151 -7.75983 -85.0003
rradius 36.9616
rwrist 36.4872
rhand -29.748 -12.2501
rfingers 7.12502
rthumb -3.07411 -42.2076
lclavicle 3.7533e-014 -8.94531e-015
lhumerus -40.3486 8.2874 83.0343
lradius 21.5055
lwrist -34.6305
lhand -30.0817 18.8584
lfingers 7.12502
lthumb -3.39633 48.8111
rfemur -1.97823 -12.9408 22.7882
rtibia 27.8531
rfoot -165.601 12.7036
rtoes -16.5445
lfemur -26.4642 11.2889 -12.3664
ltibia 62.6793
lfoot -10.1148 7.32453
ltoes -7.26141
267
root 9.65696 18.0744 -26.8795 -182.866 1.51432 -179.22
lowerback 3.67968 1.82997 0.645625
upperback 2.89213 2.59191 0.66415
thorax 0.902554 1.35892 0.247091
lowerneck -10.0647 -4.52395 -11.5669
upperneck 17.4813 -7.98194 14.7462
head 8.08742 -3.66034 6.02611
rclavicle 6.95746e-015 -2.08724e-015
rhumerus -31.684 -6.76291 -85.13
rradius 37.0635
rwrist 35.8481
rhand -29.6351 -11.9497
rfingers 7.12502
rthumb -2.96506 -41.9088
lclavicle 6.95746e-015 -2.08724e-015
lhumerus -40.8157 8.87843 82.5504
lradius 21.5331
lwrist -36.3528
lhand -28.4927 18.7054
lfingers 7.12502
lthumb -1.86178 48.677
rfemur -0.924149 -12.9382 22.6489
rtibia 27.0334
rfoot -165.561 12.978
rtoes -16.3794
lfemur -27.2004 10.9428 -12.7585
ltibia 60.3963
lfoot -11.5085 8.27702
ltoes -6.47388
268
root 9.66153 18.0725 -27.0752 -182.738 1.6609 -178.836
lowerback 3.59063 1.93266 1.13426
upperback 2.86352 2.73862 0.639218
thorax 0.946989 1.43904 -0.0518814
lowerneck -10.0097 -4.56827 -11.5843
upperneck 17.2561 -8.01472 14.8163
head 8.01257 -3.66999 6.04588
rclavicle 2.01021e-014 -8.05078e-015
rhumerus -30.978 -6.45305 -85.3385
rradius 37.3517
rwrist 35.8419
rhand -29.4386 -12.2429
rfingers 7.12502
rthumb -2.77533 -42.2046
lclavicle 2.01021e-014 -8.05078e-015
lhumerus -41.3084 8.84495 82.15
lradius 21.4251
lwrist -36.5977
lhand -28.3276 18.0111
lfingers 7.12502
lthumb -1.70227 47.9841
rfemur 0.202423 -12.8342 22.9709
rtibia 26.0795
rfoot -165.386 12.9002
rtoes -15.8666
lfemur -27.8389 10.5936 -12.6697
ltibia 57.9753
lfoot -12.7931 9.14322
ltoes -5.80587
269
root 9.66372 18.0873 -27.2764 -182.572 1.72651 -178.994
lowerback 3.38194 1.9963 0.898923
upperback 2.8513 2.80991 0.618598
thorax 1.04137 1.46936 0.0646574
lowerneck -10.0784 -4.57625 -11.8001
upperneck 17.1692 -7.96486 14.8935
head 8.00177 -3.64504 6.11456
rclavicle 3.83095e-014 1.19271e-015
rhumerus -30.2591 -5.85275 -85.3624
rradius 37.6468
rwrist 35.557
rhand -29.4 -12.1072
rfingers 7.12502
rthumb -2.73802 -42.0694
lclavicle 3.83095e-014 1.19271e-015
lhumerus -41.8383 8.60003 82.3054
lradius 21.5491
lwrist -36.4565
lhand -28.2532 17.9666
lfingers 7.12502
lthumb -1.6305 47.9401
rfemur 1.35938 -13.0199 22.6175
rtibia 25.0279
rfoot -165.04 13.0301
rtoes -15.593
lfemur -28.3526 9.84624 -13.144
ltibia 55.3073
lfoot -13.8957 10.1376
ltoes -5.51568
270
root 9.66243 18.094 -27.4789 -182.402 1.72875 -178.86
lowerback 3.14883 2.06797 1.08055
upperback 2.85508 2.90374 0.622724
thorax 1.18479 1.51851 -0.0242635
lowerneck -10.3814 -4.669 -11.7064
upperneck 17.2375 -7.99404 14.5859
head 8.06895 -3.65168 5.98419
rclavicle 5.11498e-014 -6.06293e-015
rhumerus -29.5608 -5.13636 -85.4277
rradius 37.9893
rwrist 34.9678
rhand -29.3797 -12.179
rfingers 7.12502
rthumb -2.71844 -42.1415
lclavicle 5.11498e-014 -6.06293e-015
lhumerus -42.3083 8.44264 82.2683
lradius 21.6577
lwrist -36.7197
lhand -28.0604 17.775
lfingers 7.12502
lthumb -1.44422 47.7499
rfemur 2.67287 -13.4685 22.5
rtibia 23.7216
rfoot -164.777 13.2754
rtoes -15.5326
lfemur -28.8429 9.09961 -13.2465
ltibia 52.5683
lfoot -14.6626 10.7388
ltoes -5.72936
271
root 9.66078 18.1062 -27.6826 -182.205 1.71022 -178.903
lowerback 2.86949 2.12832 0.993402
upperback 2.83218 2.97291 0.60718
thorax 1.31437 1.54956 0.0186815
lowerneck -9.94323 -4.63366 -12.5049
upperneck 16.5311 -7.95765 15.6018
head 7.82709 -3.63034 6.47746
rclavicle -3.09731e-014 6.95746e-016
rhumerus -29.0225 -4.86581 -85.3467
rradius 38.3811
rwrist 35.021
rhand -29.2851 -11.9261
rfingers 7.12502
rthumb -2.62701 -41.8897
lclavicle -3.09731e-014 6.95746e-016
lhumerus -42.7933 8.37917 82.2956
lradius 21.7778
lwrist -36.514
lhand -28.1074 17.7822
lfingers 7.12502
lthumb -1.48962 47.7568
rfemur 4.11531 -13.7747 22.2274
rtibia 22.1298
rfoot -164.536 13.2071
rtoes -15.5035
lfemur -29.2773 8.21742 -13.4593
ltibia 49.7423
lfoot -15.3441 10.9941
ltoes -5.63856
272
root 9.66352 18.1211 -27.8876 -182.018 1.69725 -178.481
lowerback 2.67714 2.30126 1.62614
upperback 2.76109 3.20648 0.619815
thorax 1.38492 1.67479 -0.316727
lowerneck -9.71401 -4.80305 -12.9698
upperneck 16.2183 -8.17484 16.0116
head 7.75549 -3.74159 6.67487
rclavicle 3.58558e-014 5.06901e-015
rhumerus -28.5998 -4.42074 -85.2892
rradius 38.752
rwrist 34.2682
rhand -29.555 -12.1262
rfingers 7.12502
rthumb -2.88775 -42.0864
lclavicle 3.58558e-014 5.06901e-015
lhumerus -43.216 8.00883 82.2844
lradius 21.8373
lwrist -36.8679
lhand -28.0749 17.726
lfingers 7.12502
lthumb -1.45827 47.7007
rfemur 5.71914 -13.5386 22.6583
rtibia 20.274
rfoot -164.457 12.6176
rtoes -15.3169
lfemur -29.6652 7.35882 -13.0641
ltibia 46.9508
lfoot -15.6371 10.8406
ltoes -5.75415
273
root 9.66752 18.1232 -28.0978 -181.808 1.48914 -177.404
lowerback 2.30336 2.25815 2.52634
upperback 2.77766 3.1552 0.957262
thorax 1.64054 1.66672 -0.453305
lowerneck -9.84805 -4.86373 -13.0232
upperneck 16.1155 -8.19021 15.9718
head 7.75091 -3.74129 6.6643
rclavicle 3.18987e-014 1.2921e-015
rhumerus -28.0434 -3.7369 -85.2392
rradius 39.127
rwrist 33.6684
rhand -29.5858 -12.0127
rfingers 7.12502
rthumb -2.91741 -41.9725
lclavicle 3.18987e-014 1.2921e-015
lhumerus -43.6314 7.53602 82.5925
lradius 22.0876
lwrist -36.5193
lhand -28.0483 17.686
lfingers 7.12502
lthumb -1.43253 47.661
rfemur 7.49634 -13.7414 23.7163
rtibia 18.1439
rfoot -164.275 12.1771
rtoes -15.4852
lfemur -30.119 6.65065 -11.9528
ltibia 44.2199
lfoot -15.2871 10.0727
ltoes -5.85223
274
root 9.66885 18.1328 -28.3059 -181.67 1.30994 -177.126
lowerback 2.08532 2.24781 2.75617
upperback 2.72905 3.13312 0.97198
thorax 1.72396 1.65846 -0.557069
lowerneck -9.68498 -4.87812 -13.0612
upperneck 15.8294 -8.18449 16.0488
head 7.63301 -3.74011 6.69444
rclavicle 3.73622e-014 5.41688e-015
rhumerus -27.659 -3.56536 -85.2848
rradius 39.4986
rwrist 33.5727
rhand -29.9639 -12.2261
rfingers 7.12502
rthumb -3.28263 -42.1806
lclavicle 3.73622e-014 5.41688e-015
lhumerus -44.1722 7.23505 82.6803
lradius 22.4067
lwrist -35.9993
lhand -28.3913 17.7404
lfingers 7.12502
lthumb -1.76387 47.7129
rfemur 9.55266 -13.7193 23.9512
rtibia 15.5842
rfoot -163.916 11.4637
rtoes -15.1495
lfemur -30.3517 5.56434 -11.6655
ltibia 41.4376
lfoot -14.8808 9.49053
ltoes -5.80949
275
root 9.66373 18.1463 -28.5125 -181.573 1.42515 -177.001
lowerback 1.93754 2.38247 2.85957
upperback 2.72493 3.30706 0.994457
thorax 1.81266 1.74747 -0.5844
lowerneck -9.66194 -4.98801 -13.1999
upperneck 15.6218 -8.26263 16.0375
head 7.58105 -3.77965 6.70143
rclavicle 6.67637e-014 9.39258e-015
rhumerus -27.2673 -3.05405 -85.158
rradius 39.9457
rwrist 33.0011
rhand -29.8603 -12.4346
rfingers 7.12502
rthumb -3.18251 -42.3906
lclavicle 6.67637e-014 9.39258e-015
lhumerus -44.5947 7.14014 82.6667
lradius 22.6842
lwrist -36.2157
lhand -28.2838 17.6396
lfingers 7.12502
lthumb -1.66 47.6129
rfemur 11.851 -13.3428 24.0043
rtibia 12.6453
rfoot -163.514 10.4496
rtoes -14.7708
lfemur -30.4673 4.73928 -11.5046
ltibia 38.7449
lfoot -14.5858 8.76843
ltoes -6.18629
276
root 9.65612 18.1643 -28.7228 -181.489 1.52972 -176.859
lowerback 1.7192 2.51295 2.92127
upperback 2.74935 3.47319 1.08575
thorax 1.96366 1.83304 -0.51274
lowerneck -9.62878 -5.10562 -13.2981
upperneck 15.4119 -8.3369 15.9303
head 7.52011 -3.82046 6.66805
rclavicle 2.19098e-014 -2.13694e-014
rhumerus -26.9565 -2.63498 -84.9703
rradius 40.4081
rwrist 32.2129
rhand -30.2677 -12.4779
rfingers 7.12502
rthumb -3.57594 -42.4276
lclavicle 2.19098e-014 -2.13694e-014
lhumerus -44.9611 6.96661 82.9089
lradius 22.9682
lwrist -36.153
lhand -28.45 17.7383
lfingers 7.12502
lthumb -1.82051 47.7103
rfemur 14.55 -13.2153 23.9845
rtibia 9.06492
rfoot -162.728 9.58454
rtoes -14.3958
lfemur -30.4531 3.93293 -11.2866
ltibia 36.0867
lfoot -14.4129 7.91616
ltoes -6.21963
